<?xml version="1.0" encoding="utf-8"?>
<!-- Generator: Adobe Illustrator 24.2.0, SVG Export Plug-In . SVG Version: 6.00 Build 0)  -->
<svg version="1.1" xmlns="http://www.w3.org/2000/svg" xmlns:xlink="http://www.w3.org/1999/xlink" x="0px" y="0px"
	 viewBox="0 0 1280 1024" style="enable-background:new 0 0 1280 1024;" xml:space="preserve">
<style type="text/css">
	.st0{fill:#00307F;stroke:#000000;stroke-miterlimit:10;}
	.st1{fill:#000074;stroke:#000000;stroke-miterlimit:10;}
	.st2{fill:#005A94;stroke:#000000;stroke-miterlimit:10;}
	.st3{fill:#00647F;stroke:#000000;stroke-miterlimit:10;}
	.st4{fill:#0064BF;stroke:#000000;stroke-miterlimit:10;}
	.st5{fill:#008EB4;stroke:#000000;stroke-miterlimit:10;}
	.st6{fill:#6235FF;stroke:#000000;stroke-miterlimit:10;}
	.st7{fill:#8575FF;stroke:#000000;stroke-miterlimit:10;}
	.st8{fill:url(#SVGID_1_);}
	.st9{fill:none;stroke:#000000;stroke-miterlimit:10;}
	.st10{fill:#7632DF;stroke:#000000;stroke-miterlimit:10;}
	.st11{fill:#FF2AD8;stroke:#000000;stroke-miterlimit:10;}
	.st12{fill:#F72EFF;stroke:#000000;stroke-miterlimit:10;}
	.st13{fill:#57005D;stroke:#000000;stroke-miterlimit:10;}
	.st14{fill:#FFB4F5;stroke:#000000;stroke-miterlimit:10;}
	.st15{fill:#FF94F7;stroke:#000000;stroke-miterlimit:10;}
	.st16{fill:#FF55FC;stroke:#000000;stroke-miterlimit:10;}
	.st17{fill:#C900B5;stroke:#000000;stroke-miterlimit:10;}
	.st18{fill:#AB00E9;stroke:#000000;stroke-miterlimit:10;}
	.st19{fill:#9E005D;stroke:#000000;stroke-miterlimit:10;}
</style>
<g id="Layer_12">
	<polygon class="st0" points="0.5,-0.5 1279.5,0.5 1279.5,1024.5 0.5,1024.5 	"/>
</g>
<g id="Layer_17">
	<path class="st1" d="M156.5,79.5c21.72-9.42,54.38-19.73,93-16c25.9,2.5,37.68,9.69,67,15c23.06,4.18,56.76,7.16,100,0l-11,945.5
		h-249V79.5z"/>
</g>
<g id="Layer_11">
	<path class="st2" d="M353.5,164.5c9.83-21.8,35.02-69.61,89-106c59.68-40.23,118.96-42.52,138-43c35.67-0.9,65.53,5.98,83,10
		c32.44,7.47,56.48,17.32,72,24c95.75,41.23,118.71,70.31,165,86c37.15,12.59,95.24,18.57,182-19c2.67,302.67,5.33,605.33,8,908
		c-247.67,0-495.33,0-743,0C349.5,737.83,351.5,451.17,353.5,164.5z"/>
	<path class="st3" d="M304.5,49.5"/>
	<path class="st4" d="M240.5,1089.5"/>
</g>
<g id="Layer_10">
	<path class="st5" d="M1158.5,0.5c-4.74,14.82-34.9,104.1-128,146c-14.14,6.36-87.64,39.44-157,12c-31.85-12.6-36.61-27.59-85-46
		c-43.98-16.74-79.62-19.42-89-20c-19.82-1.23-58.37-3.62-101,12c-64.17,23.51-98.99,73.66-112,95c-2.33,275-4.67,550-7,825
		c266.67,0,533.33,0,800,0V0.5H1158.5z"/>
</g>
<g id="Layer_9">
	<path class="st6" d="M510.5,1024.5v-827c-34.57,0.42-80.8-3.39-131-22c-28.93-10.73-36.14-17.83-87-42
		c-53.02-25.2-88.85-42.23-126-52c-34.14-8.98-90.06-17.26-166,0v943H510.5z"/>
	<path class="st7" d="M1281.5,1023.5l-447,1v-760c0,0,47-106,187-86c105.85,15.12,139.3,18.02,195-3c29.77-11.23,51.07-28.09,64-40"
		/>
</g>
<g id="Layer_8">
	<g id="XMLID_1_">
		<g>
			<linearGradient id="SVGID_1_" gradientUnits="userSpaceOnUse" x1="-0.5" y1="606.1581" x2="1280.5" y2="606.1581">
				<stop  offset="0" style="stop-color:#CCE0F4"/>
				<stop  offset="0.0593" style="stop-color:#C3DAF0"/>
				<stop  offset="0.1581" style="stop-color:#A9C9E4"/>
				<stop  offset="0.284" style="stop-color:#80AED1"/>
				<stop  offset="0.4322" style="stop-color:#4689B7"/>
				<stop  offset="0.5918" style="stop-color:#005B97"/>
			</linearGradient>
			<path class="st8" d="M1280.5,1022.5l-1281,1c22.46-228.93,61.84-404.21,94-522c17.43-63.85,47.19-140.84,116-210
				c25.5-25.62,69.76-69.07,141-90c9.56-2.81,125.46-35.21,225,16c19.78,10.18,50.35,29.54,101,46c38.97,12.66,59.53,13.77,67,14
				c38.89,1.22,53.93-10.67,90-17c55.78-9.79,102.02,4.24,121,10c0,0,62.01,18.81,121,79
				C1150.56,426.08,1237.31,676.22,1280.5,1022.5z"/>
		</g>
		<g>
			<path class="st9" d="M-0.5,1023.5c22.46-228.93,61.84-404.21,94-522c17.43-63.85,47.19-140.84,116-210
				c25.5-25.62,69.76-69.07,141-90c9.56-2.81,125.46-35.21,225,16c19.78,10.18,50.35,29.54,101,46c38.97,12.66,59.53,13.77,67,14
				c38.89,1.22,53.93-10.67,90-17c55.78-9.79,102.02,4.24,121,10c0,0,62.01,18.81,121,79c75.06,76.58,161.81,326.72,205,673"/>
		</g>
	</g>
</g>
<g id="Layer_7">
	<path class="st10" d="M0.5,237.5c71.54-16.35,117.19-4.46,146,10c16.57,8.32,21.45,14.42,58.23,41.85
		c61.43,45.82,92.15,68.73,111.77,76.15c76.79,29.06,107.62-36.07,218-17c22.82,3.94,64.47,11.14,109,38
		c38.48,23.21,60.73,50.02,108,60c19.74,4.17,36.72,3.89,48,3c3.67,191.67,7.33,383.33,11,575H0.5C0.5,762.17,0.5,499.83,0.5,237.5z
		"/>
	<path class="st11" d="M722.5,470.5"/>
	<path class="st12" d="M794.5,354.5"/>
</g>
<g id="Layer_5">
	<path class="st13" d="M-0.5,1023.5l905-1c-24.03-277.25-122.74-473.25-205-516c-63.81-33.16-125-37-125-37
		c-25.06,0-57.95-3.05-97,9c-22.18,6.84-36.17,14.99-64,17c-26.03,1.88-46.25-2.91-54-5c-30.36-8.19-46.48-22.78-66.22-36.07
		c-14.07-9.48-60.63-40.84-111.78-45.93c-58.61-5.82-79.89,27.17-138,13c-18.95-4.62-33.57-12.25-43-18
		C0.17,610.17-0.17,816.83-0.5,1023.5z"/>
	<g id="Layer_6">
		<path class="st13" d="M1281.5,1023.5c-129.67-0.33-259.33-0.67-389-1c-2.67-221.33-5.33-442.67-8-664
			c9.25-20.74,39.19-80.31,105-108c56.91-23.94,112.87-12.35,119-11c52.83,11.65,72.68,40.78,115,35c25.89-3.54,45.26-18.11,57-29
			c0,42.33,0,84.67,0,127"/>
	</g>
	<path class="st13" d="M130.5,813.5"/>
</g>
<g id="Layer_0">
</g>
<g id="Layer_4">
	<path class="st14" d="M0.5,1024V551c26.22-12.49,67.92-27.59,119-25.5c55.64,2.27,100.34,24.03,127,37
		c61.8,30.07,71.41,53.46,117,58.5c32.17,3.56,57.75-4.27,79-12c70.05-25.48,72.94-57.01,127-84c80.67-40.27,124.02,5.08,192-38.5
		c39.7-25.45,30.72-44.64,70-85.5c88.89-92.46,255.08-118.06,381-68c31.47,12.51,54.53,28.55,68,39c0,217.33,0,434.67,0,652"/>
</g>
<g id="Layer_1">
	<path class="st15" d="M904.5,1022.5l5-449c-14.31,9.37-39.78,23.99-74,32c-72.2,16.9-104.08-14.22-199-2
		c-49.41,6.36-75.37,19.23-92,30c-25.39,16.44-41.64,35.85-51,49v343L904.5,1022.5z"/>
	<g id="Layer_16">
	</g>
	<path class="st16" d="M276.5,777.5c15.77-19.73,47.98-54.38,100-76c8.68-3.61,44.35-17.84,99-19c79.17-1.68,111.12,25.92,169,35
		c44.66,7.01,110.05,3.82,197-45l-7,352h-558V777.5z"/>
	<g id="Layer_13">
	</g>
	<path class="st17" d="M1280.5,483.5c-29.05-10.87-78.62-25.28-141-23c-30.68,1.12-90.09,3.98-152,40l0,0
		c-65.01,40.63-92.83,94-145.66,172.31c-28.03,41.55-41.99,62.37-55.34,77.69c-49.18,56.45-109.41,92.66-133,106
		c17.33,56.33,34.67,112.67,52,169c192-0.67,384-1.33,576-2L1280.5,483.5z"/>
	<path class="st18" d="M1.5,669.5c39.24-12.91,68.57-9.6,85-6c35.64,7.81,64.19,28.7,94.81,51.11
		c14.15,10.35,25.59,20.27,49.67,35.78c17.04,10.98,25.55,16.56,38.52,23.11c37.67,19.01,78.74,39.74,129.95,34.6
		c52.31-5.25,51.25-23.43,106.05-23.6c41.55-0.12,74.63,12.3,92,19c38.62,14.89,54.8,30.5,78,44c31.55,18.37,81.88,36.23,162,29
		c1,49.33,2,98.67,3,148c-280.33,0-560.67,0-841,0C0.17,906.17,0.83,787.83,1.5,669.5z"/>
	<g id="Layer_14">
	</g>
	<g id="Layer_15">
	</g>
	<path class="st17" d="M1374.5,683.5"/>
	<path class="st18" d="M1450.5,804.5"/>
</g>
<g id="Layer_1_1_">
	<path class="st19" d="M-0.5,1024.5h1280v-371c-69.05,0.05-118.98,19.14-146,32c-21.12,10.05-60.54,28.81-97,68
		c-38.87,41.77-37.59,50.41-70,75c-46.15,35.01-96.45,43.29-119,47c-51.61,8.5-100.04,2.65-148,15
		c-21.67,5.58-37.46,12.1-37.46,12.1c-22.93,9.51-33.51,18.87-76.54,32.9c-75.89,24.74-146.52,29.41-204,27
		c-71.79-6.44-121.41-27.37-154-46c-10.88-6.22-18.64-11.49-43-28c-68.3-46.3-82.39-70.86-124-84c-12.8-4.04-33.27-8.68-61-7
		c0,44.29,0,88.58,0,132.87C-0.5,961.75-0.5,993.12-0.5,1024.5z"/>
	<path class="st13" d="M1281,1023.5H821c23.42-17.79,51.33-35.88,84-52c38-18.75,67.79-33.45,109.5-39c47.13-6.27,57.92,5.99,98-7
		c33.75-10.94,60.35-30.75,62-32c26.58-20.09,33.3-35.71,59-47c17.87-7.85,34.71-9.12,46-9L1281,1023.5z"/>
	<path class="st13" d="M1362.5,933.5"/>
	<path class="st13" d="M-0.5,910.5c11.63-3.36,29.51-6.97,51-5c11.92,1.09,30.47,4.41,60,20c46.64,24.62,45.68,40.24,85,62
		c27.89,15.43,52.11,20.71,81,27c54.09,11.78,96,9.7,96,10c0,0.42-80.65,0.39-373-1C-0.5,985.83-0.5,948.17-0.5,910.5z"/>
	<path class="st13" d="M-200.5,1000.5"/>
</g>
</svg>
